<?xml version="1.0" standalone="no"?>
<!DOCTYPE svg PUBLIC "-//W3C//DTD SVG 20010904//EN"
 "http://www.w3.org/TR/2001/REC-SVG-20010904/DTD/svg10.dtd">
<svg version="1.0" xmlns="http://www.w3.org/2000/svg"
 width="477.000000pt" height="233.000000pt" viewBox="0 0 477.000000 233.000000"
 preserveAspectRatio="xMidYMid meet">

<g transform="translate(0.000000,233.000000) scale(0.100000,-0.100000)"
fill="#000000" stroke="none">
<path d="M0 1165 l0 -1165 2385 0 2385 0 0 1165 0 1165 -2385 0 -2385 0 0
-1165z m1090 1018 c80 -16 116 -31 167 -70 114 -85 123 -284 18 -389 -25 -24
-56 -49 -70 -54 -38 -14 -31 -23 33 -42 128 -38 201 -138 210 -287 12 -208
-98 -340 -322 -388 -52 -11 -111 -14 -221 -10 -179 5 -247 25 -293 84 l-27 36
-5 511 -5 511 -27 13 c-52 25 -167 -8 -241 -69 -62 -51 -71 -140 -17 -169 18
-9 30 -7 72 15 51 27 51 27 76 8 63 -47 40 -155 -41 -191 -44 -19 -114 -15
-159 10 -60 34 -82 77 -80 159 4 215 173 316 567 338 160 9 267 4 365 -16z
m713 -72 c42 -27 59 -58 59 -103 -2 -93 -121 -142 -220 -89 -27 15 -52 61 -52
98 0 87 135 146 213 94z m1412 -5 c39 -26 60 -81 46 -126 -39 -128 -271 -100
-271 33 0 34 37 87 73 103 40 18 117 13 152 -10z m460 10 c72 -31 93 -121 40
-176 -107 -112 -312 8 -224 132 39 54 116 72 184 44z m-1839 -327 c14 -14 29
-43 34 -65 11 -44 13 -622 3 -698 -8 -63 -42 -86 -128 -86 -76 0 -119 24 -129
70 -3 18 -6 182 -6 365 0 370 1 363 -65 351 -50 -10 -46 14 7 45 68 38 108 49
185 46 63 -2 76 -6 99 -28z m466 6 c31 -23 48 -55 48 -90 0 -34 7 -32 50 14
66 69 112 93 188 98 57 4 74 1 111 -19 54 -29 75 -56 101 -131 45 -128 48
-390 6 -528 -54 -179 -165 -290 -318 -319 -27 -6 -54 -7 -59 -4 -19 12 -7 34
25 48 71 30 103 128 116 361 15 264 -9 419 -71 450 -32 17 -72 7 -96 -23 -45
-57 -44 -48 -43 -325 0 -146 -3 -285 -6 -307 -9 -57 -47 -80 -129 -80 -76 0
-119 24 -129 70 -3 18 -6 182 -6 365 0 370 1 363 -65 351 -81 -16 -6 52 95 85
46 15 153 5 182 -16z m903 15 c34 -13 52 -31 65 -65 6 -16 10 -170 10 -386 l0
-361 -29 -29 c-27 -26 -36 -29 -96 -29 -67 0 -100 11 -122 39 -9 12 -13 107
-13 366 -1 398 0 392 -70 381 -30 -5 -40 -3 -40 7 0 14 81 63 128 77 39 12
136 12 167 0z m481 0 c42 -16 62 -47 69 -103 3 -29 5 -202 3 -385 l-3 -334
-28 -24 c-23 -20 -39 -24 -93 -24 -63 0 -95 9 -121 36 -10 10 -13 92 -13 356
0 394 0 394 -68 391 -64 -3 -53 20 29 61 60 30 82 36 135 36 34 0 75 -5 90
-10z m651 -19 c53 -28 83 -75 83 -130 0 -54 -26 -81 -79 -81 -69 0 -97 62 -46
102 32 25 32 42 0 56 -61 28 -135 2 -149 -53 -11 -44 18 -87 142 -211 141
-140 172 -192 172 -289 0 -108 -61 -193 -167 -231 -60 -21 -182 -18 -248 7
-63 23 -173 117 -161 137 11 18 30 14 62 -13 72 -62 174 -64 227 -5 54 61 33
113 -112 275 -45 50 -95 117 -111 149 -59 117 -29 229 75 283 53 28 78 32 175
29 76 -2 104 -7 137 -25z m-2761 -1197 c24 -12 41 -32 61 -73 24 -48 28 -68
28 -141 -1 -99 -14 -133 -65 -168 -83 -56 -180 10 -180 123 0 80 45 134 114
137 41 1 44 12 19 57 -23 40 -67 59 -95 42 -27 -17 -35 -5 -13 19 22 25 83 27
131 4z m1246 -7 c19 -29 -6 -46 -32 -22 -28 25 -72 16 -89 -19 -15 -32 -28
-237 -18 -278 9 -35 65 -88 94 -88 33 0 25 -22 -13 -32 -45 -12 -83 0 -120 41
-38 39 -98 143 -134 233 -13 32 -25 56 -27 54 -2 -1 -5 -47 -7 -102 -4 -110
-17 -149 -57 -170 -53 -27 -119 -14 -119 22 0 29 3 30 39 3 38 -28 77 -11 91
40 10 37 14 283 5 293 -10 10 -53 -4 -74 -23 -32 -30 -27 -51 12 -47 28 3 32
0 35 -23 4 -34 -34 -53 -69 -35 -18 8 -25 21 -27 49 -3 32 2 43 31 72 33 33
39 35 99 35 80 0 81 -1 150 -146 l53 -109 5 100 c6 113 22 151 68 161 15 3 32
7 37 9 16 6 59 -6 67 -18z m746 11 c8 -8 12 -45 12 -101 l0 -90 20 26 c47 60
123 51 128 -15 3 -30 -3 -43 -27 -68 l-29 -31 31 -56 c42 -75 100 -133 132
-133 37 0 30 -18 -10 -26 -56 -10 -102 3 -139 42 -32 33 -96 146 -96 170 0 6
11 21 24 33 30 28 51 81 33 81 -40 -1 -62 -45 -67 -139 -5 -83 -6 -86 -33 -96
-51 -17 -57 4 -57 208 0 155 -2 178 -15 173 -20 -7 -19 4 3 20 21 17 74 18 90
2z m-3043 -24 c95 -45 56 -214 -50 -214 -39 0 -57 17 -23 22 29 4 48 42 48 94
0 63 -57 123 -74 78 -3 -9 -6 -89 -6 -178 0 -167 -4 -186 -41 -186 -44 0 -49
22 -49 202 l0 171 -32 -7 c-41 -8 -71 -37 -62 -59 5 -13 10 -14 26 -6 25 14
41 0 36 -32 -2 -19 -10 -25 -36 -27 -43 -4 -62 12 -62 53 0 71 64 104 203 105
61 0 99 -5 122 -16z m1526 6 c23 -13 26 -55 4 -64 -10 -3 -20 5 -30 24 -18 34
-27 37 -50 13 -30 -29 0 -102 43 -103 23 0 12 -20 -12 -20 -41 0 -77 -39 -83
-90 -9 -86 38 -141 91 -106 45 29 44 116 -1 116 -10 0 -11 -5 -4 -19 8 -14 7
-22 -4 -31 -21 -18 -45 -5 -45 24 0 31 30 52 85 61 63 10 95 26 95 46 0 12 -9
19 -27 21 -14 2 -28 8 -30 14 -5 16 25 44 47 44 61 0 67 -107 7 -129 -18 -7
-21 -15 -18 -58 2 -43 -2 -54 -27 -80 -58 -63 -170 -67 -229 -8 -28 28 -33 40
-33 80 0 54 22 98 59 116 14 8 28 14 29 15 2 1 -6 12 -17 23 -30 30 -27 75 5
100 29 23 110 29 145 11z m906 -120 c1 0 9 -7 17 -16 12 -12 16 -37 16 -110 0
-77 3 -94 15 -94 24 0 17 -26 -10 -38 -34 -16 -45 -15 -66 4 -16 14 -20 14
-48 0 -43 -23 -67 -20 -90 10 -43 55 -21 108 57 138 50 20 67 42 55 72 -2 7
-13 16 -24 19 -23 8 -57 -9 -40 -19 14 -9 15 -43 1 -51 -5 -3 -19 -1 -30 5
-24 13 -26 52 -4 70 21 19 83 28 119 18 16 -4 31 -8 32 -8z m180 -7 c9 -12 16
-11 48 6 40 21 58 19 93 -12 12 -11 22 -16 22 -10 0 16 59 41 81 36 38 -10 49
-42 49 -140 0 -76 3 -93 15 -93 25 0 17 -18 -15 -35 -72 -37 -90 -13 -90 121
0 57 -3 104 -6 104 -3 0 -14 -5 -25 -10 -17 -10 -19 -22 -19 -108 0 -103 -7
-122 -45 -122 -38 0 -45 19 -45 125 0 56 -3 105 -6 108 -4 3 -15 2 -25 -4 -17
-8 -19 -22 -19 -104 0 -98 -10 -125 -49 -125 -35 0 -41 21 -41 137 0 94 -3
113 -15 113 -27 0 -15 19 18 28 36 10 57 6 74 -15z m831 -10 c6 -9 12 -21 12
-25 0 -14 -48 -55 -86 -73 -44 -21 -51 -38 -30 -71 25 -37 63 -48 93 -28 35
22 43 7 11 -21 -82 -70 -208 -12 -208 97 0 69 35 122 95 142 44 15 92 6 113
-21z m248 -9 c8 -31 -7 -49 -73 -86 -29 -16 -53 -32 -53 -33 0 -20 30 -59 52
-71 26 -13 32 -13 58 0 27 13 30 13 30 0 0 -24 -86 -57 -128 -49 -97 18 -131
158 -56 236 51 53 157 55 170 3z m135 20 c8 -10 15 -11 24 -4 7 6 27 15 45 20
43 12 76 -20 85 -85 16 -103 -13 -184 -78 -218 -44 -23 -59 -16 -31 14 15 17
20 40 22 120 4 109 -5 137 -39 119 -16 -9 -19 -25 -21 -112 -3 -114 -14 -132
-62 -110 -26 11 -26 13 -26 126 0 101 -2 115 -17 119 -14 3 -9 8 16 19 37 17
64 14 82 -8z m-3566 -9 c23 -22 25 -32 25 -120 0 -52 3 -94 8 -92 20 6 11 -20
-12 -33 -24 -14 -29 -13 -57 2 -27 16 -33 16 -52 3 -28 -19 -57 -19 -85 1 -17
12 -22 25 -22 59 0 49 23 75 86 95 54 18 57 90 3 90 -21 0 -38 -22 -21 -28 17
-5 15 -39 -3 -46 -26 -10 -45 5 -45 35 0 39 32 59 98 59 43 0 58 -5 77 -25z
m168 13 c3 -10 7 -10 20 0 9 8 33 12 58 10 56 -4 81 -37 87 -116 9 -121 -52
-184 -140 -147 -16 6 -18 0 -18 -63 0 -62 -2 -71 -20 -77 -11 -3 -29 -3 -40 0
-19 6 -20 15 -20 180 0 148 -2 176 -17 190 -14 14 -14 18 -2 26 21 13 87 11
92 -3z m391 -9 c25 -20 26 -24 26 -119 0 -84 2 -98 15 -94 20 8 19 -10 -1 -26
-20 -18 -74 -17 -84 1 -8 12 -14 11 -40 -5 -53 -30 -110 -2 -110 55 0 47 16
67 74 93 57 26 75 55 49 81 -17 18 -32 19 -53 4 -11 -8 -12 -12 -2 -16 17 -7
15 -40 -3 -47 -45 -17 -64 49 -23 78 34 24 119 21 152 -5z"/>
<path d="M884 2109 c-18 -20 -19 -46 -22 -522 -2 -347 1 -510 8 -528 31 -74
160 -60 224 24 52 68 70 125 69 222 0 102 -26 176 -79 229 -35 35 -119 76
-156 76 -21 0 -28 5 -28 19 0 25 17 37 64 44 82 13 127 97 128 235 1 93 -19
149 -68 192 -44 38 -110 42 -140 9z"/>
<path d="M1522 428 c-19 -19 -16 -158 5 -187 l16 -24 19 23 c14 17 18 39 18
99 0 74 -9 101 -35 101 -6 0 -16 -5 -23 -12z"/>
<path d="M2870 330 c-31 -31 -24 -90 10 -90 21 0 30 19 30 65 0 43 -14 51 -40
25z"/>
<path d="M3862 428 c-9 -12 -16 -49 -13 -71 2 -13 61 26 61 39 0 39 -27 57
-48 32z"/>
<path d="M4100 415 c-5 -14 -10 -35 -10 -46 0 -19 1 -19 31 -4 24 13 30 22 27
43 -4 37 -35 41 -48 7z"/>
<path d="M681 326 c-7 -8 -11 -30 -9 -48 2 -25 8 -33 23 -33 17 0 20 8 23 48
3 49 -12 63 -37 33z"/>
<path d="M967 423 c-4 -3 -7 -40 -7 -80 0 -101 23 -139 56 -95 16 20 19 135 4
163 -10 19 -40 26 -53 12z"/>
<path d="M1250 330 c-22 -22 -27 -69 -8 -88 20 -20 48 15 48 59 0 47 -13 56
-40 29z"/>
</g>
</svg>
